<?xml version="1.0" encoding="UTF-8" standalone="no"?>
<svg
   version="1.0"
   width="912.000000pt"
   height="1280.000000pt"
   viewBox="0 0 912.000000 1280.000000"
   preserveAspectRatio="xMidYMid meet"
   id="svg64"
   sodipodi:docname="question.svg"
   inkscape:version="1.3.1 (91b66b0783, 2023-11-16, custom)"
   xmlns:inkscape="http://www.inkscape.org/namespaces/inkscape"
   xmlns:sodipodi="http://sodipodi.sourceforge.net/DTD/sodipodi-0.dtd"
   xmlns="http://www.w3.org/2000/svg"
   xmlns:svg="http://www.w3.org/2000/svg"
   xmlns:rdf="http://www.w3.org/1999/02/22-rdf-syntax-ns#"
   xmlns:cc="http://creativecommons.org/ns#"
   xmlns:dc="http://purl.org/dc/elements/1.1/">
  <defs
     id="defs68" />
  <sodipodi:namedview
     pagecolor="#ffffff"
     bordercolor="#666666"
     borderopacity="1"
     objecttolerance="10"
     gridtolerance="10"
     guidetolerance="10"
     inkscape:pageopacity="0"
     inkscape:pageshadow="2"
     inkscape:window-width="1920"
     inkscape:window-height="1040"
     id="namedview66"
     showgrid="false"
     inkscape:zoom="0.36796875"
     inkscape:cx="137.23992"
     inkscape:cy="853.33333"
     inkscape:window-x="0"
     inkscape:window-y="0"
     inkscape:window-maximized="1"
     inkscape:current-layer="svg64"
     inkscape:showpageshadow="0"
     inkscape:pagecheckerboard="0"
     inkscape:deskcolor="#d1d1d1"
     inkscape:document-units="pt" />
  <metadata
     id="metadata2">
Created by potrace 1.15, written by Peter Selinger 2001-2017
<rdf:RDF>
  <cc:Work
     rdf:about="">
    <dc:format>image/svg+xml</dc:format>
    <dc:type
       rdf:resource="http://purl.org/dc/dcmitype/StillImage" />
    <dc:title />
  </cc:Work>
</rdf:RDF>
</metadata>
  <g
     transform="translate(0.000000,1280.000000) scale(0.100000,-0.100000)"
     fill="#000000"
     stroke="none"
     id="g62"
     style="fill:#833002;fill-opacity:1">
    <path
       d="M4380 12793 c-8 -3 -94 -32 -190 -65 -686 -233 -1826 -636 -2065 -730 -98 -38 -27 0 160 87 568 264 867 384 1363 549 244 82 442 149 440 151 -6 5 -326 -29 -478 -51 -489 -71 -1008 -228 -1404 -426 -128 -64 -318 -169 -314 -174 2 -2 64 19 138 46 74 27 136 48 137 46 2 -2 -84 -38 -191 -80 -169 -67 -209 -87 -300 -152 -59 -41 -106 -76 -106 -79 0 -2 39 14 88 34 123 54 312 124 318 119 2 -3 -17 -13 -43 -23 -27 -10 -139 -57 -249 -105 -179 -77 -210 -94 -277 -151 -41 -35 -74 -65 -73 -66 1 -2 85 33 187 78 241 105 249 109 249 104 0 -7 -310 -155 -405 -193 -87 -34 -95 -41 -227 -171 -76 -74 -137 -136 -135 -137 2 -2 174 64 383 147 208 83 512 202 674 266 162 63 391 153 509 199 118 46 216 82 218 80 2 -2 -54 -27 -124 -56 -423 -176 -914 -402 -1459 -670 -338 -167 -395 -198 -432 -237 -23 -26 -40 -48 -38 -50 2 -2 84 36 182 85 894 447 1986 935 2779 1242 154 59 309 119 344 134 35 14 66 24 68 22 2 -2 -52 -27 -119 -56 -274 -117 -1162 -517 -2048 -922 -1014 -463 -1245 -571 -1262 -586 -18 -15 -158 -225 -158 -236 0 -4 12 0 28 8 127 65 1962 859 1969 852 2 -2 -108 -52 -244 -111 -426 -186 -1746 -775 -1768 -789 -17 -11 -85 -122 -85 -138 0 -3 222 94 492 214 581 258 895 393 1378 593 195 81 420 174 500 207 80 33 152 62 160 65 51 16 -454 -236 -640 -319 -301 -134 -1107 -500 -1515 -688 -181 -84 -355 -164 -386 -177 -43 -19 -60 -33 -73 -60 -12 -26 -13 -34 -4 -30 7 3 172 80 367 171 194 92 355 165 357 163 2 -2 -80 -43 -184 -92 -549 -260 -568 -270 -581 -305 -6 -18 -9 -35 -7 -37 2 -2 241 108 532 246 290 138 529 249 531 247 4 -4 -923 -524 -1032 -579 -86 -43 -91 -47 -107 -93 -9 -27 -16 -50 -14 -52 2 -1 55 27 117 64 99 58 738 368 745 361 1 -1 -195 -103 -437 -227 l-440 -225 -20 -70 c-11 -38 -22 -76 -24 -82 -3 -7 -3 -13 -1 -13 2 0 288 139 637 309 1019 496 1800 865 2579 1219 512 232 1033 463 1037 458 2 -1 -83 -43 -189 -91 -729 -333 -1947 -941 -3108 -1551 -124 -66 -399 -204 -611 -308 l-386 -188 -12 -50 c-6 -27 -11 -53 -11 -58 0 -4 69 29 153 74 485 262 932 494 1142 594 527 250 918 432 922 429 2 -2 -133 -68 -299 -147 -461 -218 -1137 -552 -1383 -684 -510 -275 -542 -294 -548 -324 -3 -15 -4 -28 -3 -30 2 -1 34 15 72 36 272 154 1451 759 1460 749 2 -2 -116 -75 -263 -162 -148 -87 -446 -266 -663 -399 -217 -132 -447 -268 -510 -301 -108 -57 -115 -63 -123 -98 -5 -21 -7 -40 -4 -43 2 -3 31 11 63 30 43 24 1043 547 1547 808 9 5 17 7 17 4 0 -2 -152 -84 -337 -182 -738 -388 -1293 -691 -1298 -708 -2 -6 -6 -48 -9 -93 l-5 -82 57 -6 c31 -3 89 -10 127 -16 l71 -11 784 392 c432 216 781 388 775 383 -5 -6 -147 -91 -315 -190 -228 -135 -382 -217 -610 -326 -504 -240 -552 -264 -527 -271 49 -13 91 -4 168 35 45 22 83 39 85 37 2 -2 -26 -21 -62 -42 -36 -21 -63 -40 -61 -42 2 -3 107 -18 232 -34 226 -30 228 -30 259 -11 55 34 477 243 482 239 2 -3 -42 -33 -98 -68 -270 -168 -313 -198 -287 -204 103 -21 104 -21 215 49 76 48 533 326 627 382 4 2 7 2 7 0 0 -3 -157 -103 -350 -223 -192 -120 -350 -222 -350 -226 0 -5 19 -8 41 -8 35 0 64 14 183 89 183 115 900 555 993 610 68 41 75 48 119 129 26 48 62 111 80 140 19 28 32 52 30 52 -2 0 -77 -43 -167 -96 -228 -134 -1094 -582 -1105 -572 -4 5 686 420 861 518 61 34 192 102 292 151 l181 90 74 92 c147 185 334 349 544 479 361 223 796 338 1285 338 l136 0 178 75 c99 41 180 73 182 71 2 -2 -58 -37 -134 -77 l-138 -74 58 -3 58 -3 368 195 c239 126 405 208 471 231 56 19 105 35 108 35 25 -1 -590 -313 -878 -446 l-45 -21 47 -7 c37 -6 56 -3 90 14 25 12 35 14 24 5 -11 -8 -23 -15 -28 -15 -4 0 -8 -4 -8 -9 0 -5 24 -12 54 -15 l54 -7 348 199 c298 169 1001 542 1022 542 8 0 13 3 -328 -190 -227 -129 -718 -415 -888 -517 l-82 -50 109 -31 109 -32 408 201 c225 111 414 203 419 206 7 4 7 3 0 -4 -11 -11 -652 -391 -704 -418 l-35 -17 33 -14 c18 -8 37 -14 41 -14 4 0 45 21 91 46 129 72 729 384 939 489 157 79 906 421 1033 472 20 8 37 17 37 20 0 2 -12 14 -27 27 l-26 23 -116 -52 c-213 -96 -535 -247 -673 -316 -149 -75 -182 -86 -103 -37 28 17 73 46 100 64 58 38 355 175 603 279 163 68 171 72 154 88 -10 9 -26 17 -35 17 -14 0 -367 -147 -540 -224 -31 -14 -61 -25 -65 -24 -4 1 -18 -4 -32 -10 -14 -6 -83 -32 -155 -58 -71 -25 -159 -59 -194 -75 -35 -16 -66 -28 -68 -26 -2 2 171 99 384 215 468 254 543 296 543 302 0 3 -34 27 -75 54 l-75 49 -63 -28 c-34 -16 -183 -88 -332 -161 -148 -73 -271 -132 -272 -130 -1 1 24 17 55 36 31 18 122 76 202 128 80 52 189 115 243 140 53 25 97 49 97 53 0 4 -27 23 -61 42 l-61 35 -61 -14 c-70 -17 -85 -13 -27 6 23 8 43 17 46 21 5 9 -107 69 -127 69 -7 0 -150 -65 -318 -144 -168 -79 -481 -226 -696 -326 -214 -100 -527 -246 -695 -325 -282 -131 -417 -190 -545 -235 -27 -10 -75 -28 -105 -40 -98 -39 -39 -4 195 116 127 65 248 129 270 144 50 33 499 267 820 428 308 153 782 373 935 434 l25 10 -38 19 -38 20 -197 -84 c-213 -92 -541 -241 -672 -307 -45 -23 -84 -39 -87 -36 -7 7 416 213 871 424 l38 18 -67 29 -67 28 -96 -32 c-139 -47 -470 -172 -657 -248 -216 -88 -212 -86 -200 -74 11 11 308 142 650 288 110 46 204 88 208 92 4 5 -12 14 -36 20 -43 13 -46 12 -263 -77 -194 -80 -242 -97 -222 -76 4 3 97 45 208 94 l203 88 -67 20 -67 20 -327 -133 c-514 -208 -1257 -528 -1731 -744 -246 -112 -145 -56 191 107 708 342 1238 575 1602 704 111 39 204 74 208 77 5 4 -34 17 -85 30 l-92 24 -240 -93 c-983 -378 -2274 -948 -3880 -1715 -413 -197 -1241 -598 -1408 -681 -71 -36 -131 -63 -134 -61 -2 3 105 60 239 127 134 68 648 329 1143 581 787 400 957 482 1350 654 982 429 2201 930 2848 1170 26 10 44 21 40 25 -4 4 -55 17 -113 29 l-106 21 -169 -59 c-586 -204 -881 -316 -1190 -454 -203 -90 -993 -472 -1585 -766 -217 -108 -555 -268 -750 -355 -195 -88 -490 -222 -655 -299 -345 -159 -374 -172 -360 -159 10 9 636 367 840 480 143 79 793 381 1785 829 447 202 1308 550 1902 769 52 19 73 31 64 36 -32 18 -95 9 -185 -26 -52 -20 -96 -35 -98 -32 -2 2 37 18 86 37 52 19 85 36 79 40 -7 4 -44 11 -83 14 -69 6 -74 5 -300 -73 -564 -196 -1086 -390 -1655 -616 -200 -80 -366 -144 -367 -142 -5 5 420 178 1315 537 625 250 788 318 765 322 -15 3 -102 11 -193 18 -161 12 -167 12 -224 -10 -32 -12 -61 -20 -63 -17 -3 3 15 10 39 18 l43 13 -30 6 c-37 8 -434 10 -455 2z m380 -53 c-8 -5 -19 -10 -25 -10 -5 0 -3 5 5 10 8 5 20 10 25 10 6 0 3 -5 -5 -10z m-50 -20 c-8 -5 -19 -10 -25 -10 -5 0 -3 5 5 10 8 5 20 10 25 10 6 0 3 -5 -5 -10z m150 -9 c-8 -5 -129 -54 -268 -110 -421 -169 -1215 -503 -1877 -789 -165 -71 -516 -223 -780 -337 -264 -114 -525 -227 -579 -251 -204 -90 -93 -32 282 148 668 322 1779 790 2912 1229 278 107 352 134 310 110z m1079 -66 c-3 -2 -99 -40 -214 -84 -402 -152 -1302 -517 -1834 -745 -124 -52 -226 -94 -228 -93 -5 6 695 347 872 425 99 43 333 132 520 197 187 66 457 160 600 211 237 84 297 102 284 89z m-2780 -339 c-2 -2 -119 -48 -259 -101 -342 -129 -1029 -397 -1437 -560 -183 -73 -333 -131 -333 -129 0 2 93 49 208 105 223 109 500 216 1327 515 442 159 506 181 494 170z m2651 -81 c-14 -8 -29 -14 -35 -14 -5 0 1 6 15 14 14 8 30 14 35 14 6 0 -1 -6 -15 -14z m-145 -4 c-6 -4 -109 -54 -230 -109 -121 -55 -339 -158 -485 -227 -146 -70 -519 -236 -830 -370 -564 -242 -1061 -460 -1133 -497 -22 -11 -41 -17 -43 -15 -18 18 1179 563 2191 998 292 125 532 228 535 229 2 0 0 -4 -5 -9z m-1595 -41 c-8 -5 -19 -10 -25 -10 -5 0 -3 5 5 10 8 5 20 10 25 10 6 0 3 -5 -5 -10z m-41 -14 c-2 -2 -184 -76 -404 -164 -220 -88 -505 -204 -634 -256 -129 -53 -236 -94 -238 -92 -5 5 217 97 766 317 448 179 524 208 510 195z m1771 -106 c-8 -5 -19 -10 -25 -10 -5 0 -3 5 5 10 8 5 20 10 25 10 6 0 3 -5 -5 -10z m-41 -15 c-11 -10 -483 -214 -488 -210 -5 5 15 14 284 131 172 75 217 93 204 79z m1196 -44 c-6 -5 -71 -37 -145 -71 -74 -34 -360 -175 -635 -313 -348 -174 -567 -276 -720 -337 -121 -49 -222 -86 -224 -84 -5 5 663 334 944 465 182 84 774 348 785 349 2 0 0 -4 -5 -9z m-196 -25 c-2 -2 -92 -41 -199 -86 -107 -45 -314 -138 -458 -207 -145 -68 -266 -122 -269 -119 -6 6 15 17 282 144 300 143 682 302 644 268z m-3634 -101 c-27 -13 -54 -24 -60 -24 -5 1 13 11 40 24 28 13 55 24 60 24 6 -1 -12 -11 -40 -24z m4164 20 c-13 -12 -1272 -696 -1418 -769 -143 -72 -76 -29 187 120 375 213 645 360 952 518 232 119 297 149 279 131z m-2844 -15 c-3 -5 -12 -10 -18 -10 -7 0 -6 4 3 10 19 12 23 12 15 0z m1085 6 c0 -3 -159 -85 -352 -184 -354 -179 -550 -283 -988 -523 -129 -70 -365 -187 -525 -260 -563 -255 -1189 -561 -1950 -951 -111 -57 -313 -154 -450 -217 -138 -62 -422 -200 -632 -307 -211 -106 -383 -191 -383 -189 0 2 64 38 143 81 78 42 358 197 622 342 503 278 545 299 1515 764 333 159 947 460 1365 668 418 208 902 443 1075 523 173 80 369 170 435 200 139 64 125 58 125 53z m-2490 -46 c-8 -5 -19 -10 -25 -10 -5 0 -3 5 5 10 8 5 20 10 25 10 6 0 3 -5 -5 -10z m-50 -20 c-8 -5 -19 -10 -25 -10 -5 0 -3 5 5 10 8 5 20 10 25 10 6 0 3 -5 -5 -10z m-50 -20 c-8 -5 -19 -10 -25 -10 -5 0 -3 5 5 10 8 5 20 10 25 10 6 0 3 -5 -5 -10z m3700 -24 c0 -4 -228 -149 -400 -255 -72 -44 -116 -66 -119 -58 -6 19 -24 28 -48 22 -13 -3 -23 -3 -23 0 0 3 132 71 293 150 320 157 297 146 297 141z m-3890 -56 c-8 -5 -19 -10 -25 -10 -5 0 -3 5 5 10 8 5 20 10 25 10 6 0 3 -5 -5 -10z m-190 -80 c-8 -5 -19 -10 -25 -10 -5 0 -3 5 5 10 8 5 20 10 25 10 6 0 3 -5 -5 -10z m170 0 c-8 -5 -19 -10 -25 -10 -5 0 -3 5 5 10 8 5 20 10 25 10 6 0 3 -5 -5 -10z m2190 -135 c0 -2 -22 -16 -50 -30 -27 -14 -50 -23 -50 -20 0 2 21 16 48 29 53 28 52 28 52 21z m-110 -60 c0 -2 -22 -16 -50 -30 -27 -14 -50 -23 -50 -20 0 2 21 16 48 29 53 28 52 28 52 21z m-110 -59 c0 -6 -172 -98 -176 -94 -2 3 164 97 174 98 1 0 2 -2 2 -4z m-1321 -79 c-36 -31 -678 -349 -699 -346 -8 0 683 348 694 348 5 1 7 -1 5 -2z m240 -70 c-2 -2 -206 -106 -454 -232 -625 -317 -1496 -765 -2015 -1037 -63 -34 -110 -56 -105 -50 25 26 1109 655 1255 727 106 53 688 318 955 435 110 49 234 104 275 123 65 31 103 45 89 34z m336 -268 c-82 -48 -193 -105 -182 -93 12 13 231 134 242 134 6 0 -21 -19 -60 -41z m-835 -63 c0 -6 -383 -207 -725 -381 -159 -81 -372 -190 -472 -242 -101 -52 -183 -92 -183 -90 0 5 308 165 1180 616 204 105 200 103 200 97z m-1980 -146 c-8 -5 -19 -10 -25 -10 -5 0 -3 5 5 10 8 5 20 10 25 10 6 0 3 -5 -5 -10z m2130 -94 c0 -15 -516 -263 -527 -253 -2 3 516 257 524 257 2 0 3 -2 3 -4z m-705 -405 c-6 -5 -307 -156 -670 -334 -363 -178 -901 -445 -1195 -592 -294 -147 -532 -264 -528 -260 8 9 628 342 1074 576 272 144 483 245 841 405 263 117 480 213 483 213 2 1 0 -3 -5 -8z"
       id="path4"
       style="fill:#833002;fill-opacity:1" />
    <path
       d="M7685 11485 c-148 -74 -271 -135 -272 -135 -1 0 0 7 4 17 6 14 0 15 -47 9 -145 -19 -570 -211 -1245 -563 -132 -69 -246 -131 -254 -138 -11 -11 -9 -15 13 -27 25 -13 40 -7 314 131 360 181 814 394 912 428 26 9 -131 -91 -215 -137 -554 -302 -885 -489 -884 -498 0 -4 30 -28 65 -54 l65 -48 92 46 c51 26 364 189 697 364 333 175 734 382 892 462 l287 144 -20 21 -21 20 -195 -99 c-107 -55 -196 -98 -198 -96 -2 2 80 48 183 102 103 55 189 101 191 103 7 5 -72 83 -84 83 -5 -1 -131 -61 -280 -135z m45 -49 c0 -2 -134 -75 -297 -161 -164 -87 -331 -175 -370 -197 -40 -22 -73 -38 -73 -35 0 14 165 106 435 244 316 161 305 155 305 149z"
       id="path6"
       style="fill:#833002;fill-opacity:1" />
    <path
       d="M7756 11225 c-324 -191 -467 -268 -963 -515 -321 -159 -583 -294 -583 -300 0 -5 11 -17 25 -26 23 -15 28 -14 120 36 52 28 95 49 95 46 0 -2 -41 -28 -91 -56 -90 -52 -90 -52 -72 -74 10 -11 19 -22 20 -24 1 -2 174 99 385 224 210 125 428 247 483 270 133 57 308 124 312 120 3 -3 -295 -202 -452 -301 -92 -58 -417 -254 -540 -325 -60 -35 -112 -65 -114 -67 -3 -2 4 -13 15 -24 l21 -20 104 59 c128 72 548 288 534 275 -5 -5 -143 -85 -305 -177 -162 -93 -299 -172 -303 -176 -9 -8 13 -50 26 -50 5 0 106 56 225 124 817 466 1108 624 1237 671 72 26 135 49 140 52 6 3 3 -1 -5 -9 -50 -50 -937 -579 -1380 -823 -58 -32 -120 -66 -138 -77 l-32 -20 25 -41 c13 -23 28 -43 33 -45 5 -1 80 32 168 74 382 183 444 213 444 209 0 -2 -53 -31 -117 -65 -238 -126 -473 -262 -473 -273 1 -44 18 -38 196 61 232 129 704 376 709 371 2 -3 -51 -33 -118 -69 -165 -88 -436 -241 -611 -344 -122 -73 -143 -89 -139 -106 3 -11 9 -20 14 -20 4 0 75 39 156 87 271 159 620 349 892 487 256 130 476 229 492 224 4 -2 -83 -52 -194 -112 -298 -162 -767 -423 -1062 -593 -249 -143 -260 -151 -258 -178 1 -15 6 -31 10 -35 7 -6 1948 1091 1968 1112 4 3 2 15 -4 26 -11 21 -11 20 -53 -3 -28 -15 -67 -25 -113 -28 -114 -9 -279 -60 -496 -152 -43 -19 -79 -32 -79 -29 0 9 130 66 415 184 148 61 270 112 271 113 2 1 -5 13 -15 25 l-17 23 -204 -84 c-304 -125 -329 -134 -400 -147 -88 -16 -232 -74 -432 -175 -93 -46 -168 -82 -168 -80 0 2 57 36 128 76 380 214 791 472 815 510 6 9 7 24 3 34 -5 15 -15 17 -68 12 l-61 -5 97 54 c53 31 96 59 96 63 0 4 -8 16 -19 25 -18 16 -31 10 -297 -140 -154 -86 -310 -170 -348 -186 -39 -17 -144 -66 -235 -109 -90 -44 -166 -78 -167 -76 -2 2 36 29 84 60 175 112 322 232 322 262 0 9 -14 15 -42 17 -41 3 -37 6 122 75 168 73 287 119 395 154 92 30 87 26 75 49 -6 11 -18 20 -26 20 -13 0 -344 -129 -454 -177 -57 -24 -35 -10 180 118 113 67 207 123 209 125 5 5 -20 34 -28 33 -3 0 -177 -101 -385 -224z"
       id="path8"
       style="fill:#833002;fill-opacity:1" />
    <path
       d="M8495 10426 c-496 -199 -1028 -435 -1535 -679 l-255 -123 3 -35 c2 -19 5 -35 6 -36 2 -2 76 34 167 80 220 110 488 234 629 290 165 65 286 109 275 98 -13 -12 -666 -405 -882 -531 l-162 -94 2 -113 c1 -62 4 -113 6 -113 1 0 73 40 160 88 233 132 394 219 611 327 181 91 454 217 420 194 -8 -6 -152 -87 -319 -181 -167 -93 -432 -245 -589 -336 -265 -155 -287 -169 -294 -200 -5 -19 -8 -37 -6 -41 2 -4 149 78 328 182 377 219 1004 573 1168 660 64 33 180 82 265 111 146 49 152 52 150 77 -1 19 5 30 23 38 78 35 174 110 174 136 0 1 -17 5 -37 7 -89 11 -302 -30 -480 -91 -46 -16 -83 -27 -81 -26 2 2 121 71 265 154 143 82 276 160 296 172 l35 23 -19 38 c-11 21 -25 38 -32 38 -6 -1 -138 -52 -292 -114z m74 -40 c-2 -2 -139 -78 -304 -168 -165 -91 -318 -176 -340 -189 -50 -28 -37 -14 38 40 61 44 78 68 58 80 -6 4 59 37 146 74 87 36 210 89 273 116 103 44 141 58 129 47z m-77 -312 c-57 -31 -152 -73 -210 -94 -377 -134 -799 -319 -1317 -577 -104 -52 -187 -92 -184 -88 14 14 750 419 854 470 129 62 410 175 580 233 122 42 352 111 370 111 6 0 -37 -25 -93 -55z"
       id="path10"
       style="fill:#833002;fill-opacity:1" />
    <path
       d="M8885 9768 c-82 -44 -247 -134 -365 -202 -118 -67 -264 -144 -325 -171 -171 -75 -540 -247 -687 -321 -73 -36 -128 -62 -123 -56 30 30 826 452 975 517 58 25 121 59 140 74 20 16 55 38 79 51 30 15 40 24 31 30 -8 5 11 19 57 42 69 35 113 66 113 80 0 57 -545 -159 -1090 -431 -308 -155 -772 -406 -960 -519 -27 -17 -37 -35 -66 -123 -19 -56 -55 -141 -79 -188 -24 -47 -43 -86 -42 -87 1 -1 97 49 212 113 116 63 318 171 450 240 132 69 286 150 343 180 56 30 102 52 102 50 0 -11 -346 -216 -560 -332 -540 -293 -595 -328 -680 -435 l-35 -45 40 24 c22 14 51 32 65 41 37 25 50 32 50 27 0 -3 -37 -29 -82 -58 -46 -30 -140 -109 -210 -175 -109 -105 -333 -305 -488 -437 -56 -48 -45 -42 100 54 122 81 231 145 474 278 151 83 211 107 88 36 -37 -22 -209 -123 -382 -225 -173 -103 -322 -189 -330 -192 -8 -4 -85 -63 -170 -133 -159 -131 -172 -142 -155 -133 32 17 1229 724 1425 842 147 88 261 149 304 163 38 13 71 22 73 20 2 -2 -99 -73 -224 -157 -918 -619 -1768 -1207 -2425 -1677 -231 -166 -264 -193 -340 -281 -145 -169 -234 -283 -209 -267 8 4 81 57 161 116 356 260 536 378 1064 701 170 104 320 197 335 205 70 44 -34 -33 -489 -362 -782 -566 -1238 -904 -1258 -933 -23 -32 -84 -152 -78 -152 3 0 294 208 648 462 532 382 858 606 948 652 22 11 -19 -22 -435 -344 -405 -315 -876 -688 -1120 -889 -129 -106 -152 -129 -167 -169 -10 -25 -16 -47 -14 -50 2 -2 91 68 197 155 520 427 993 798 1890 1485 144 110 136 105 859 528 294 172 699 411 900 530 545 324 806 476 1113 649 31 18 57 30 57 28 0 -11 -396 -282 -545 -372 -1042 -635 -2210 -1433 -3024 -2064 -97 -75 -326 -244 -510 -375 -351 -250 -917 -660 -963 -698 -16 -13 -31 -38 -35 -58 l-6 -34 25 19 c77 60 338 249 475 346 87 62 173 123 191 137 69 53 26 10 -97 -96 -71 -61 -198 -160 -282 -219 -85 -60 -193 -137 -241 -171 l-86 -63 -17 -77 c-9 -42 -19 -86 -22 -96 -6 -21 -10 -25 148 110 189 160 584 453 894 664 182 123 358 243 393 268 124 87 57 31 -180 -154 -134 -104 -412 -324 -618 -488 -296 -236 -514 -405 -647 -501 -5 -3 -21 -100 -18 -104 2 -2 74 53 159 123 85 69 224 176 308 239 549 407 1876 1362 2538 1826 11 7 20 11 20 9 0 -13 -584 -489 -920 -749 -719 -558 -1268 -1005 -1771 -1444 -151 -132 -297 -258 -323 -280 l-47 -40 -6 -140 -6 -140 129 122 c97 91 296 246 789 617 363 273 964 724 1335 1004 371 279 693 520 715 535 119 85 -73 -66 -885 -693 -569 -440 -1108 -879 -1915 -1562 -163 -137 -170 -145 -173 -183 -2 -22 1 -57 5 -78 l8 -38 195 172 c230 202 543 473 760 655 450 378 1599 1311 1737 1410 78 56 505 343 533 359 55 30 -155 -138 -295 -235 -282 -197 -642 -471 -995 -754 -259 -209 -1152 -954 -1572 -1313 -354 -302 -368 -315 -368 -349 0 -26 3 -33 13 -28 6 5 154 129 327 278 173 148 342 292 375 320 110 91 22 9 -156 -146 -97 -84 -262 -229 -367 -323 l-191 -170 0 -157 c-1 -141 1 -158 16 -158 9 0 170 152 357 338 714 707 1077 1044 1351 1257 798 619 1816 1324 2757 1909 140 87 169 110 270 214 147 153 223 242 206 242 -7 1 -1 7 14 15 35 20 298 353 298 379 0 3 -24 -9 -52 -29 -29 -19 -60 -35 -68 -35 -19 0 -159 -50 -232 -84 -32 -14 -58 -24 -58 -22 0 6 160 91 317 170 127 63 149 81 182 143 11 21 10 22 -12 14 -46 -18 -332 -164 -456 -233 -213 -119 -507 -300 -771 -475 -53 -35 9 16 450 369 250 200 581 466 735 592 258 210 281 231 297 274 9 26 17 52 17 59 1 7 -90 -61 -201 -151 -306 -245 -474 -375 -1183 -916 -520 -396 -3339 -2518 -3500 -2634 -36 -26 -37 -27 -15 -4 177 179 895 817 1085 965 655 508 1097 825 1663 1193 483 314 517 338 517 365 0 35 -73 22 -193 -34 -59 -28 -96 -42 -82 -31 14 10 296 212 628 449 331 237 703 504 824 593 122 89 283 201 358 248 l135 87 17 62 c9 34 14 61 10 59 -10 -4 -71 -43 -320 -198 -311 -194 -566 -366 -892 -600 -232 -166 -696 -487 -760 -525 -13 -8 -12 -5 1 15 9 14 146 115 305 224 791 544 1397 975 1537 1091 73 61 88 82 66 96 -16 10 -16 10 56 51 32 19 41 30 43 56 2 17 1 32 -2 32 -3 0 -45 -24 -93 -53 -48 -29 -110 -66 -138 -82 l-50 -29 33 38 c158 181 -390 -100 -1443 -739 -170 -104 -485 -291 -699 -417 -214 -125 -405 -238 -425 -250 -72 -43 1 15 359 279 657 486 708 522 913 649 611 382 1183 753 1296 842 46 36 92 79 102 96 11 20 44 45 88 69 39 21 73 42 76 47 3 5 3 27 -1 49 l-7 41 -48 -28 c-26 -15 -146 -89 -266 -165 -120 -76 -288 -180 -373 -231 -188 -112 -841 -513 -1110 -680 -107 -66 -199 -123 -205 -125 -5 -2 35 32 90 76 55 44 129 109 165 145 49 50 266 202 898 633 l833 568 -7 56 c-3 31 -8 59 -11 63 -2 4 -40 -8 -85 -27 -45 -19 -83 -33 -85 -31 -2 1 35 20 83 41 74 33 85 41 80 59 -3 12 -6 25 -6 30 0 4 -8 5 -17 2 -16 -5 -16 -4 -3 6 14 13 16 69 2 67 -4 -1 -74 -37 -157 -81z m-15 -143 c-14 -8 -29 -14 -35 -14 -5 0 1 6 15 14 14 8 30 14 35 14 6 0 -1 -6 -15 -14z m-71 -29 c-10 -9 -129 -66 -129 -61 0 6 111 64 124 65 5 0 7 -2 5 -4z m-139 -147 c-8 -5 -163 -96 -345 -201 -581 -335 -943 -547 -1225 -715 -151 -90 -268 -158 -260 -150 38 36 727 468 1010 634 298 174 800 443 825 442 6 0 3 -5 -5 -10z m-405 -308 c-14 -13 -518 -323 -885 -544 -272 -164 -515 -295 -526 -284 -6 6 1397 835 1416 837 2 0 0 -4 -5 -9z m460 -80 c-29 -26 -515 -343 -515 -336 0 6 508 345 517 345 4 0 3 -4 -2 -9z m-930 -290 c-6 -4 -109 -74 -229 -155 -155 -104 -227 -146 -243 -144 -18 2 39 41 224 155 235 144 270 165 248 144z m880 -279 c-16 -14 -463 -336 -650 -468 -417 -295 -975 -674 -1110 -754 -117 -70 -337 -216 -550 -367 -188 -132 -805 -546 -805 -539 0 7 634 471 1111 813 883 633 1145 808 1774 1185 215 129 253 151 230 130z m-1780 -421 c-42 -38 -623 -440 -887 -614 -238 -156 -228 -149 -228 -143 0 2 159 112 353 244 193 132 444 303 557 381 187 128 231 157 205 132z m-185 -245 c0 -13 -394 -275 -610 -406 -140 -84 -266 -160 -280 -169 -14 -8 -20 -10 -15 -4 6 6 177 118 380 248 204 130 404 259 445 286 77 50 80 52 80 45z m980 -220 c0 -3 -81 -62 -280 -205 -28 -20 -31 -21 -15 -4 18 19 284 213 292 213 2 0 3 -2 3 -4z m715 -235 c-6 -4 -63 -45 -129 -91 -65 -45 -173 -123 -240 -172 -66 -49 -166 -115 -221 -146 -55 -30 -140 -80 -190 -110 -108 -65 -112 -67 -103 -57 9 9 881 584 888 585 2 0 0 -4 -5 -9z m-190 -40 c-10 -9 -397 -246 -442 -270 -50 -26 -19 0 60 50 90 59 378 229 386 229 3 0 1 -4 -4 -9z m-1295 -156 c-25 -25 -205 -157 -400 -292 -349 -243 -1094 -770 -1280 -906 -52 -39 -100 -73 -105 -76 -82 -47 860 659 1075 807 515 353 745 510 750 511 2 1 -16 -19 -40 -44z m-970 -29 c0 -2 -8 -10 -17 -17 -16 -13 -17 -12 -4 4 13 16 21 21 21 13z m-40 -30 c0 -5 -127 -99 -150 -111 -30 -16 5 14 75 64 73 52 75 54 75 47z m1630 -110 c0 -2 -64 -50 -142 -107 -79 -57 -190 -140 -248 -184 -104 -81 -474 -318 -435 -278 30 29 809 573 822 573 2 0 3 -2 3 -4z m519 0 c-10 -9 -109 -56 -109 -51 0 6 91 54 104 55 5 0 7 -2 5 -4z m-174 -165 c-6 -4 -77 -50 -160 -102 -82 -51 -258 -163 -390 -249 -383 -249 -389 -250 -51 -10 146 104 295 199 415 266 180 101 205 113 186 95z m-1210 -620 c-6 -4 -71 -52 -145 -105 -74 -53 -119 -83 -100 -65 39 34 239 179 248 179 3 0 2 -4 -3 -9z m-1505 -66 c0 -3 -35 -31 -77 -62 -61 -44 -490 -369 -550 -416 -7 -5 -13 -8 -13 -5 0 11 348 285 483 380 160 113 157 111 157 103z m740 -479 c-8 -7 -76 -67 -150 -133 -74 -66 -175 -157 -225 -203 -152 -139 -387 -327 -669 -534 -147 -108 -324 -242 -392 -296 -235 -188 -123 -89 259 228 451 376 664 548 962 781 196 152 260 199 215 157z m-1570 -1269 c0 -2 -10 -12 -22 -23 l-23 -19 19 23 c18 21 26 27 26 19z m-60 -51 c0 -2 -8 -10 -17 -17 -16 -13 -17 -12 -4 4 13 16 21 21 21 13z m-70 -60 c0 -2 -8 -10 -17 -17 -16 -13 -17 -12 -4 4 13 16 21 21 21 13z"
       id="path12"
       style="fill:#833002;fill-opacity:1" />
    <path
       d="M1946 9270 c-297 -176 -553 -328 -569 -339 l-30 -19 55 -7 c50 -6 60 -4 99 21 24 15 246 148 493 295 l448 268 24 50 c13 28 22 51 21 51 -2 0 -245 -144 -541 -320z"
       id="path14"
       style="fill:#833002;fill-opacity:1" />
    <path
       d="M2139 9212 c-367 -229 -519 -326 -519 -334 0 -5 20 -8 45 -8 38 0 61 10 148 64 56 35 202 123 324 196 220 131 222 132 237 178 18 53 18 52 9 51 -5 0 -114 -66 -244 -147z"
       id="path16"
       style="fill:#833002;fill-opacity:1" />
    <path
       d="M2129 9102 c-118 -70 -254 -152 -303 -182 -86 -53 -89 -55 -60 -61 93 -20 110 -15 320 102 110 60 203 114 208 119 8 8 57 150 52 150 -2 0 -99 -57 -217 -128z"
       id="path18"
       style="fill:#833002;fill-opacity:1" />
    <path
       d="M2128 8935 l-148 -103 68 -10 67 -10 71 44 c70 43 71 45 84 102 7 31 15 63 17 70 9 22 -11 11 -159 -93z"
       id="path20"
       style="fill:#833002;fill-opacity:1" />
    <path
       d="M7855 6724 c-60 -47 -234 -171 -388 -275 -1217 -831 -1846 -1332 -2807 -2235 -251 -236 -328 -299 -716 -586 -159 -118 -333 -248 -386 -289 l-98 -74 91 -3 90 -3 115 98 c163 139 177 143 44 15 l-115 -111 94 0 94 -1 94 88 c53 48 141 128 197 177 129 115 1085 878 1491 1191 233 179 329 259 381 319 39 44 118 127 175 184 57 58 96 100 88 95 -17 -10 -571 -401 -666 -470 -124 -89 -59 -32 175 154 290 231 521 405 718 542 82 57 203 149 269 204 131 109 394 333 410 349 19 19 -18 -5 -205 -131 -102 -69 -178 -118 -170 -110 27 27 245 195 467 358 172 128 263 204 435 366 286 271 296 282 123 148z m-925 -718 c0 -1 -28 -25 -62 -52 -311 -241 -1179 -932 -1498 -1193 -220 -179 -185 -141 85 94 498 433 794 667 1350 1068 121 87 125 90 125 83z m-1040 -1040 c0 -2 -132 -104 -292 -227 -410 -312 -758 -580 -859 -661 -48 -37 -89 -68 -93 -68 -8 0 171 162 319 290 113 96 225 179 720 528 205 145 205 145 205 138z"
       id="path22"
       style="fill:#833002;fill-opacity:1" />
    <path
       d="M5575 4578 c-403 -324 -1195 -980 -1564 -1295 l-26 -22 78 -1 79 0 196 163 c399 330 1034 842 1324 1067 47 36 61 55 78 101 12 32 40 88 61 125 22 37 38 68 37 69 -2 1 -120 -92 -263 -207z"
       id="path24"
       style="fill:#833002;fill-opacity:1" />
    <path
       d="M5460 4237 c-328 -241 -1141 -849 -1225 -916 l-78 -61 48 0 c46 0 56 6 354 225 342 252 342 251 9 -25 l-236 -195 44 -3 c43 -3 47 -1 191 121 217 181 680 560 896 731 197 158 188 148 211 249 4 15 3 27 -1 26 -5 0 -100 -68 -213 -152z"
       id="path26"
       style="fill:#833002;fill-opacity:1" />
    <path
       d="M5353 3923 c-227 -184 -767 -627 -797 -654 -6 -5 9 -9 35 -9 43 0 52 6 289 201 135 111 359 293 498 406 242 195 252 205 252 238 0 19 -2 35 -4 35 -3 0 -126 -98 -273 -217z"
       id="path28"
       style="fill:#833002;fill-opacity:1" />
    <path
       d="M5493 3909 c-65 -63 -242 -234 -393 -381 l-274 -268 48 0 48 0 286 278 c158 153 313 302 344 331 48 45 58 60 64 97 3 25 4 47 1 50 -3 4 -59 -45 -124 -107z"
       id="path30"
       style="fill:#833002;fill-opacity:1" />
    <path
       d="M5402 3606 c-106 -86 -243 -198 -304 -249 l-110 -92 81 -3 81 -3 173 158 c95 87 196 179 225 205 51 46 53 49 50 94 l-3 47 -193 -157z"
       id="path32"
       style="fill:#833002;fill-opacity:1" />
    <path
       d="M5412 3412 l-183 -147 41 -3 c38 -3 48 3 173 101 73 58 139 112 146 120 7 9 11 29 9 46 -3 29 -4 29 -186 -117z"
       id="path34"
       style="fill:#833002;fill-opacity:1" />
    <path
       d="M5487 3347 l-98 -82 51 -3 c48 -3 54 0 105 44 49 41 55 51 55 85 0 22 -3 39 -7 39 -5 0 -52 -37 -106 -83z"
       id="path36"
       style="fill:#833002;fill-opacity:1" />
    <path
       d="M5576 3275 c-19 -15 -19 -15 2 -15 13 0 22 6 22 15 0 18 0 18 -24 0z"
       id="path38"
       style="fill:#833002;fill-opacity:1" />
    <path
       d="M3387 2423 c-4 -3 -7 -26 -7 -51 l0 -45 49 44 c27 24 49 47 50 52 1 9 -83 10 -92 0z"
       id="path40"
       style="fill:#833002;fill-opacity:1" />
    <path
       d="M3478 2344 c-89 -78 -98 -89 -98 -121 0 -32 2 -34 18 -22 37 29 252 221 252 225 0 2 -17 4 -37 4 -33 0 -50 -11 -135 -86z"
       id="path42"
       style="fill:#833002;fill-opacity:1" />
    <path
       d="M3873 2288 c-87 -79 -232 -213 -323 -298 -151 -141 -165 -158 -168 -192 -2 -21 0 -38 4 -38 3 0 84 74 179 165 95 91 175 165 179 165 4 0 -18 -29 -49 -65 -30 -36 -65 -82 -78 -103 -14 -20 -72 -80 -130 -132 l-105 -95 -1 -49 -1 -50 33 30 c129 120 259 235 297 264 36 27 380 323 588 507 l37 32 -75 1 -76 0 -89 -82 c-49 -46 -80 -69 -68 -52 12 17 29 37 38 44 9 7 29 30 46 52 l31 38 -56 0 -56 0 -157 -142z"
       id="path44"
       style="fill:#833002;fill-opacity:1" />
    <path
       d="M4225 2263 c-239 -209 -700 -631 -783 -715 l-63 -65 3 -63 3 -63 131 124 c72 68 146 133 165 143 34 20 34 20 -14 -40 -151 -187 -267 -374 -267 -433 0 -16 -4 -33 -10 -36 -5 -3 -10 -31 -10 -61 l0 -54 236 240 c130 132 293 293 363 357 l126 118 -85 -95 c-47 -52 -139 -151 -205 -220 -165 -172 -310 -332 -378 -416 -50 -63 -57 -76 -57 -115 l1 -44 37 41 c471 525 667 728 1217 1263 l310 301 -114 0 -114 0 -76 -72 c-42 -40 -232 -223 -422 -408 -369 -358 -614 -590 -623 -590 -8 0 101 154 207 294 77 100 111 135 221 223 191 153 645 537 646 546 0 4 -20 7 -44 7 -44 0 -51 -5 -243 -171 -254 -221 -247 -215 -178 -138 33 37 112 112 175 169 176 156 165 140 95 140 l-60 0 -190 -167z"
       id="path46"
       style="fill:#833002;fill-opacity:1" />
    <path
       d="M5047 2248 c-98 -101 -244 -255 -325 -343 -157 -172 -288 -304 -929 -939 -412 -406 -413 -408 -413 -449 l0 -41 73 70 c284 276 972 904 990 904 5 0 -30 -41 -77 -91 -170 -178 -268 -314 -270 -374 -1 -26 -23 -55 -125 -166 -318 -345 -499 -581 -476 -619 11 -18 27 -11 64 28 90 95 374 354 446 407 44 32 121 92 170 134 187 156 826 715 1175 1027 229 205 245 222 248 257 2 20 1 37 -3 37 -3 0 -159 -138 -348 -307 -707 -634 -713 -635 -43 -8 l396 370 0 53 c0 28 -3 52 -6 52 -3 0 -31 -24 -62 -54 -80 -75 -454 -410 -602 -539 l-125 -109 110 107 c61 59 240 229 398 378 l288 270 -3 61 -3 61 -67 3 -66 3 -239 -207 c-131 -114 -293 -257 -360 -317 -68 -60 -123 -106 -123 -104 0 3 116 115 257 249 142 134 289 273 328 310 l70 68 -85 0 -85 1 -178 -183z m352 -21 c-19 -17 -129 -117 -245 -222 -115 -104 -376 -356 -581 -560 -204 -203 -368 -363 -363 -355 61 110 735 766 1125 1093 91 77 129 103 64 44z m-995 -1109 c-60 -56 -161 -152 -224 -213 -130 -125 -116 -103 44 65 87 92 266 248 285 250 2 0 -45 -46 -105 -102z"
       id="path48"
       style="fill:#833002;fill-opacity:1" />
    <path
       d="M5525 1929 c-381 -345 -700 -645 -1133 -1063 -375 -363 -442 -434 -442 -468 0 -43 50 -16 187 98 37 32 77 64 88 73 11 9 -45 -52 -125 -134 -80 -83 -171 -179 -201 -215 -69 -79 -159 -200 -159 -211 0 -5 28 -9 62 -9 58 0 65 3 103 37 l40 38 -34 -37 -35 -38 42 0 c38 0 52 8 120 63 42 34 115 89 162 122 127 88 532 395 915 694 491 382 485 377 485 412 0 28 -13 39 -25 19 -5 -8 -467 -373 -735 -580 -52 -40 -124 -96 -160 -124 -35 -28 -61 -46 -57 -40 4 6 212 182 464 390 251 209 470 390 485 404 28 24 29 28 26 98 l-3 74 -170 -143 c-93 -79 -164 -136 -157 -127 8 9 85 77 173 150 147 123 159 135 159 166 0 19 -4 32 -10 30 -32 -11 -751 -632 -1300 -1123 -53 -47 -49 -42 62 95 146 180 479 480 1090 985 145 119 158 133 158 163 0 17 -3 32 -6 32 -4 0 -34 -23 -68 -52 -102 -86 -105 -86 -13 1 71 67 87 88 87 112 0 16 -3 29 -6 29 -4 0 -56 -45 -118 -101 l-111 -101 118 115 118 116 -3 57 -3 56 -70 -63z m-285 -692 c0 -2 -12 -14 -27 -28 l-28 -24 24 28 c23 25 31 32 31 24z m-70 -60 c0 -2 -12 -14 -27 -28 l-28 -24 24 28 c23 25 31 32 31 24z m-70 -60 c0 -2 -12 -14 -27 -28 l-28 -24 24 28 c23 25 31 32 31 24z m-70 -60 c0 -2 -12 -14 -27 -28 l-28 -24 24 28 c23 25 31 32 31 24z m-80 -70 c0 -2 -12 -14 -27 -28 l-28 -24 24 28 c23 25 31 32 31 24z m-60 -50 c0 -2 -19 -21 -42 -42 l-43 -40 40 43 c36 39 45 47 45 39z m-90 -80 c0 -2 -15 -16 -32 -33 l-33 -29 29 33 c28 30 36 37 36 29z m-90 -80 c0 -2 -12 -14 -27 -28 l-28 -24 24 28 c23 25 31 32 31 24z m-90 -80 c0 -2 -17 -19 -37 -38 l-38 -34 34 38 c33 34 41 42 41 34z m-90 -81 c0 -2 -75 -72 -167 -157 -265 -242 -294 -268 -203 -178 74 73 361 337 368 339 1 0 2 -2 2 -4z m-550 -420 c0 -2 -8 -10 -17 -17 -16 -13 -17 -12 -4 4 13 16 21 21 21 13z"
       id="path50"
       style="fill:#833002;fill-opacity:1" />
    <path
       d="M5380 927 c-118 -117 -330 -317 -470 -444 -140 -128 -313 -288 -385 -357 l-130 -125 134 0 135 -1 205 203 c229 225 413 397 604 562 l127 110 0 58 c0 31 -3 57 -6 57 -4 0 -43 -35 -88 -78 -94 -92 -358 -336 -401 -372 -75 -63 235 248 358 359 l137 124 0 58 c0 33 -1 59 -2 59 -2 0 -100 -96 -218 -213z"
       id="path52"
       style="fill:#833002;fill-opacity:1" />
    <path
       d="M5535 762 c-28 -26 -215 -198 -415 -383 -201 -185 -374 -346 -384 -358 l-19 -21 42 0 c40 0 48 6 309 248 147 137 326 302 399 368 125 112 132 121 133 157 0 20 -3 37 -7 37 -5 0 -31 -22 -58 -48z"
       id="path54"
       style="fill:#833002;fill-opacity:1" />
    <path
       d="M5565 589 c-16 -20 -113 -128 -215 -240 -102 -113 -214 -238 -249 -277 l-63 -72 43 1 c43 0 45 2 159 130 63 72 170 184 238 249 l123 118 -3 63 -3 63 -30 -35z"
       id="path56"
       style="fill:#833002;fill-opacity:1" />
    <path
       d="M5530 367 c-36 -34 -136 -130 -222 -214 l-158 -153 43 0 c41 0 47 5 225 178 180 173 184 178 180 214 l-3 37 -65 -62z"
       id="path58"
       style="fill:#833002;fill-opacity:1" />
    <path
       d="M5495 85 l-90 -85 98 0 97 0 0 85 c0 47 -3 85 -7 85 -5 -1 -48 -39 -98 -85z"
       id="path60"
       style="fill:#833002;fill-opacity:1" />
  </g>
</svg>
